<svg viewBox="0 -107 512 512" width="512" height="512" xmlns="http://www.w3.org/2000/svg" version="1.1" xmlns:xlink="http://www.w3.org/1999/xlink" xmlns:svgjs="http://svgjs.com/svgjs" x="0" y="0" style="enable-background:new 0 0 512 512" xml:space="preserve">
  <g>
    <path fill="#23272b" data-original="#23272b" d="M472.527 221.188c-8.414 0-15.238-6.825-15.238-15.239V88.945c0-8.418 6.824-15.238 15.238-15.238 8.418 0 15.239 6.82 15.239 15.238V205.95c0 8.414-6.82 15.238-15.239 15.238zm0 0"></path>
    <path fill="#fff04a" data-original="#fff04a" d="M496.762 297.05h-48.469c-8.414 0-15.238-6.823-15.238-15.238v-51.628c0-21.766 17.707-39.473 39.472-39.473S512 208.418 512 230.18v51.629c0 8.418-6.824 15.242-15.238 15.242zm0 0"></path>
    <path fill="#555a66" data-original="#555a66" d="M347.496 67.594H140.27c-8.415 0-15.239 6.82-15.239 15.238V197.52c0 .25.008.496.02.742.453 14.828 14.465 28.879 39.57 39.64 22.934 9.832 51.086 15.246 79.266 15.246 28.18 0 56.332-5.414 79.265-15.246 25.524-10.941 39.582-25.28 39.582-40.382V82.832c0-8.418-6.824-15.238-15.238-15.238zm0 0"></path>
    <path fill="#23272b" data-original="#23272b" d="M347.496 67.594H243.883v185.554h.004c28.18 0 56.332-5.414 79.265-15.246 25.524-10.941 39.582-25.28 39.582-40.382V82.832c0-8.418-6.824-15.238-15.238-15.238zm0 0"></path>
    <path fill="#7e8596" data-original="#7e8596" d="M477.203 74.441 248.56.734c-3.04-.98-6.313-.98-9.352 0L10.563 74.441A15.241 15.241 0 0 0 0 88.945c0 6.614 4.27 12.473 10.563 14.504l228.644 73.703c1.52.493 3.098.735 4.676.735 1.578 0 3.156-.242 4.676-.735l228.644-73.703a15.24 15.24 0 0 0 0-29.008zm0 0"></path>
    <path fill="#555a66" data-original="#555a66" d="m248.559 177.152 228.644-73.703a15.245 15.245 0 0 0 10.563-14.504c0-6.613-4.27-12.472-10.563-14.504L248.56.734A15.286 15.286 0 0 0 243.883 0v177.887c1.578 0 3.156-.242 4.676-.735zm0 0"></path>
  </g>
</svg>
